<svg width="105" height="25" viewBox="0 0 105 25" fill="none" xmlns="http://www.w3.org/2000/svg">
<g clip-path="url(#clip0_1_122)">
<path d="M1.662 17.5V7.7H3.93V15.652H8.844V17.5H1.662ZM13.8542 17.612C12.9955 17.612 12.2395 17.444 11.5862 17.108C10.9422 16.772 10.4429 16.3147 10.0882 15.736C9.73354 15.148 9.5562 14.4807 9.5562 13.734C9.5562 12.978 9.72887 12.3107 10.0742 11.732C10.4289 11.144 10.9095 10.6867 11.5162 10.36C12.1229 10.024 12.8089 9.856 13.5742 9.856C14.3115 9.856 14.9742 10.0147 15.5622 10.332C16.1595 10.64 16.6309 11.088 16.9762 11.676C17.3215 12.2547 17.4942 12.95 17.4942 13.762C17.4942 13.846 17.4895 13.944 17.4802 14.056C17.4709 14.1587 17.4615 14.2567 17.4522 14.35H11.3342V13.076H16.3042L15.4642 13.454C15.4642 13.062 15.3849 12.7213 15.2262 12.432C15.0675 12.1427 14.8482 11.9187 14.5682 11.76C14.2882 11.592 13.9615 11.508 13.5882 11.508C13.2149 11.508 12.8835 11.592 12.5942 11.76C12.3142 11.9187 12.0949 12.1473 11.9362 12.446C11.7775 12.7353 11.6982 13.0807 11.6982 13.482V13.818C11.6982 14.2287 11.7869 14.5927 11.9642 14.91C12.1509 15.218 12.4075 15.456 12.7342 15.624C13.0702 15.7827 13.4622 15.862 13.9102 15.862C14.3115 15.862 14.6615 15.8013 14.9602 15.68C15.2682 15.5587 15.5482 15.3767 15.8002 15.134L16.9622 16.394C16.6169 16.786 16.1829 17.0893 15.6602 17.304C15.1375 17.5093 14.5355 17.612 13.8542 17.612ZM23.5632 17.5V16.03L23.4232 15.708V13.076C23.4232 12.6093 23.2785 12.2453 22.9892 11.984C22.7092 11.7227 22.2752 11.592 21.6872 11.592C21.2858 11.592 20.8892 11.6573 20.4972 11.788C20.1145 11.9093 19.7878 12.0773 19.5172 12.292L18.7332 10.766C19.1438 10.4767 19.6385 10.2527 20.2172 10.094C20.7958 9.93533 21.3838 9.856 21.9812 9.856C23.1292 9.856 24.0205 10.1267 24.6552 10.668C25.2898 11.2093 25.6072 12.054 25.6072 13.202V17.5H23.5632ZM21.2672 17.612C20.6792 17.612 20.1752 17.514 19.7552 17.318C19.3352 17.1127 19.0132 16.8373 18.7892 16.492C18.5652 16.1467 18.4532 15.7593 18.4532 15.33C18.4532 14.882 18.5605 14.49 18.7752 14.154C18.9992 13.818 19.3492 13.5567 19.8252 13.37C20.3012 13.174 20.9218 13.076 21.6872 13.076H23.6892V14.35H21.9252C21.4118 14.35 21.0572 14.434 20.8612 14.602C20.6745 14.77 20.5812 14.98 20.5812 15.232C20.5812 15.512 20.6885 15.736 20.9032 15.904C21.1272 16.0627 21.4305 16.142 21.8132 16.142C22.1772 16.142 22.5038 16.058 22.7932 15.89C23.0825 15.7127 23.2925 15.456 23.4232 15.12L23.7592 16.128C23.6005 16.6133 23.3112 16.982 22.8912 17.234C22.4712 17.486 21.9298 17.612 21.2672 17.612ZM27.7838 17.5V9.968H29.8698V12.096L29.5758 11.48C29.7998 10.948 30.1591 10.5467 30.6538 10.276C31.1484 9.996 31.7504 9.856 32.4598 9.856V11.872C32.3664 11.8627 32.2824 11.858 32.2078 11.858C32.1331 11.8487 32.0538 11.844 31.9698 11.844C31.3724 11.844 30.8871 12.0167 30.5138 12.362C30.1498 12.698 29.9678 13.2253 29.9678 13.944V17.5H27.7838ZM38.5501 9.856C39.1474 9.856 39.6794 9.97733 40.1461 10.22C40.6221 10.4533 40.9954 10.8173 41.2661 11.312C41.5367 11.7973 41.6721 12.4227 41.6721 13.188V17.5H39.4881V13.524C39.4881 12.9173 39.3527 12.4693 39.0821 12.18C38.8207 11.8907 38.4474 11.746 37.9621 11.746C37.6167 11.746 37.3041 11.8207 37.0241 11.97C36.7534 12.11 36.5387 12.3293 36.3801 12.628C36.2307 12.9267 36.1561 13.3093 36.1561 13.776V17.5H33.9721V9.968H36.0581V12.054L35.6661 11.424C35.9367 10.92 36.3241 10.5327 36.8281 10.262C37.3321 9.99133 37.9061 9.856 38.5501 9.856ZM48.1706 17.5V7.7H50.0466L54.2186 14.616H53.2246L57.3266 7.7H59.1886L59.2166 17.5H57.0886L57.0746 10.962H57.4666L54.1906 16.464H53.1686L49.8226 10.962H50.2986V17.5H48.1706ZM65.1717 17.612C64.369 17.612 63.655 17.444 63.0297 17.108C62.4137 16.772 61.9237 16.3147 61.5597 15.736C61.205 15.148 61.0277 14.4807 61.0277 13.734C61.0277 12.978 61.205 12.3107 61.5597 11.732C61.9237 11.144 62.4137 10.6867 63.0297 10.36C63.655 10.024 64.369 9.856 65.1717 9.856C65.965 9.856 66.6744 10.024 67.2997 10.36C67.925 10.6867 68.415 11.1393 68.7697 11.718C69.1244 12.2967 69.3017 12.9687 69.3017 13.734C69.3017 14.4807 69.1244 15.148 68.7697 15.736C68.415 16.3147 67.925 16.772 67.2997 17.108C66.6744 17.444 65.965 17.612 65.1717 17.612ZM65.1717 15.82C65.5357 15.82 65.8624 15.736 66.1517 15.568C66.441 15.4 66.6697 15.162 66.8377 14.854C67.0057 14.5367 67.0897 14.1633 67.0897 13.734C67.0897 13.2953 67.0057 12.922 66.8377 12.614C66.6697 12.306 66.441 12.068 66.1517 11.9C65.8624 11.732 65.5357 11.648 65.1717 11.648C64.8077 11.648 64.481 11.732 64.1917 11.9C63.9024 12.068 63.669 12.306 63.4917 12.614C63.3237 12.922 63.2397 13.2953 63.2397 13.734C63.2397 14.1633 63.3237 14.5367 63.4917 14.854C63.669 15.162 63.9024 15.4 64.1917 15.568C64.481 15.736 64.8077 15.82 65.1717 15.82ZM70.9615 17.5V9.968H73.0475V12.096L72.7535 11.48C72.9775 10.948 73.3368 10.5467 73.8315 10.276C74.3262 9.996 74.9282 9.856 75.6375 9.856V11.872C75.5442 11.8627 75.4602 11.858 75.3855 11.858C75.3108 11.8487 75.2315 11.844 75.1475 11.844C74.5502 11.844 74.0648 12.0167 73.6915 12.362C73.3275 12.698 73.1455 13.2253 73.1455 13.944V17.5H70.9615ZM80.8194 17.612C79.9608 17.612 79.2048 17.444 78.5514 17.108C77.9074 16.772 77.4081 16.3147 77.0534 15.736C76.6988 15.148 76.5214 14.4807 76.5214 13.734C76.5214 12.978 76.6941 12.3107 77.0394 11.732C77.3941 11.144 77.8748 10.6867 78.4814 10.36C79.0881 10.024 79.7741 9.856 80.5394 9.856C81.2768 9.856 81.9394 10.0147 82.5274 10.332C83.1248 10.64 83.5961 11.088 83.9414 11.676C84.2868 12.2547 84.4594 12.95 84.4594 13.762C84.4594 13.846 84.4548 13.944 84.4454 14.056C84.4361 14.1587 84.4268 14.2567 84.4174 14.35H78.2994V13.076H83.2694L82.4294 13.454C82.4294 13.062 82.3501 12.7213 82.1914 12.432C82.0328 12.1427 81.8134 11.9187 81.5334 11.76C81.2534 11.592 80.9268 11.508 80.5534 11.508C80.1801 11.508 79.8488 11.592 79.5594 11.76C79.2794 11.9187 79.0601 12.1473 78.9014 12.446C78.7428 12.7353 78.6634 13.0807 78.6634 13.482V13.818C78.6634 14.2287 78.7521 14.5927 78.9294 14.91C79.1161 15.218 79.3728 15.456 79.6994 15.624C80.0354 15.7827 80.4274 15.862 80.8754 15.862C81.2768 15.862 81.6268 15.8013 81.9254 15.68C82.2334 15.5587 82.5134 15.3767 82.7654 15.134L83.9274 16.394C83.5821 16.786 83.1481 17.0893 82.6254 17.304C82.1028 17.5093 81.5008 17.612 80.8194 17.612Z" fill="#FF6551"/>
<g clip-path="url(#clip1_1_122)">
<path fill-rule="evenodd" clip-rule="evenodd" d="M95.6808 4.68077C95.7379 4.62347 95.8058 4.57801 95.8806 4.54699C95.9553 4.51597 96.0355 4.5 96.1164 4.5C96.1973 4.5 96.2775 4.51597 96.3522 4.54699C96.427 4.57801 96.4949 4.62347 96.5521 4.68077L103.936 12.0645C103.993 12.1217 104.039 12.1896 104.07 12.2643C104.101 12.3391 104.117 12.4192 104.117 12.5002C104.117 12.5811 104.101 12.6612 104.07 12.736C104.039 12.8107 103.993 12.8786 103.936 12.9358L96.5521 20.3196C96.4365 20.4351 96.2798 20.5 96.1164 20.5C95.953 20.5 95.7963 20.4351 95.6808 20.3196C95.5652 20.204 95.5003 20.0473 95.5003 19.8839C95.5003 19.7205 95.5652 19.5638 95.6808 19.4483L102.63 12.5002L95.6808 5.55205C95.6235 5.4949 95.578 5.427 95.547 5.35224C95.516 5.27749 95.5 5.19735 95.5 5.11641C95.5 5.03548 95.516 4.95534 95.547 4.88058C95.578 4.80583 95.6235 4.73793 95.6808 4.68077Z" fill="#FF6551"/>
</g>
</g>
<defs>
<clipPath id="clip0_1_122">
<rect width="104" height="24" fill="white" transform="translate(0.5 0.5)"/>
</clipPath>
<clipPath id="clip1_1_122">
<rect width="9" height="16" fill="white" transform="translate(95.5 4.5)"/>
</clipPath>
</defs>
</svg>
