<svg width="1322" height="91" viewBox="0 0 1322 91" fill="none" xmlns="http://www.w3.org/2000/svg">
<g clip-path="url(#clip0_1_35)">
<path d="M137.992 55V38.2H146.2C148.312 38.2 149.896 38.6 150.952 39.4C152.024 40.2 152.56 41.256 152.56 42.568C152.56 43.448 152.344 44.216 151.912 44.872C151.48 45.512 150.888 46.008 150.136 46.36C149.384 46.712 148.52 46.888 147.544 46.888L148 45.904C149.056 45.904 149.992 46.08 150.808 46.432C151.624 46.768 152.256 47.272 152.704 47.944C153.168 48.616 153.4 49.44 153.4 50.416C153.4 51.856 152.832 52.984 151.696 53.8C150.56 54.6 148.888 55 146.68 55H137.992ZM141.856 52.072H146.392C147.4 52.072 148.16 51.912 148.672 51.592C149.2 51.256 149.464 50.728 149.464 50.008C149.464 49.304 149.2 48.784 148.672 48.448C148.16 48.096 147.4 47.92 146.392 47.92H141.568V45.088H145.72C146.664 45.088 147.384 44.928 147.88 44.608C148.392 44.272 148.648 43.768 148.648 43.096C148.648 42.44 148.392 41.952 147.88 41.632C147.384 41.296 146.664 41.128 145.72 41.128H141.856V52.072ZM156.18 55V42.088H159.756V45.736L159.252 44.68C159.636 43.768 160.252 43.08 161.1 42.616C161.948 42.136 162.98 41.896 164.196 41.896V45.352C164.036 45.336 163.892 45.328 163.764 45.328C163.636 45.312 163.5 45.304 163.356 45.304C162.332 45.304 161.5 45.6 160.86 46.192C160.236 46.768 159.924 47.672 159.924 48.904V55H156.18ZM173.598 55V52.48L173.358 51.928V47.416C173.358 46.616 173.11 45.992 172.614 45.544C172.134 45.096 171.39 44.872 170.382 44.872C169.694 44.872 169.014 44.984 168.342 45.208C167.686 45.416 167.126 45.704 166.662 46.072L165.318 43.456C166.022 42.96 166.87 42.576 167.862 42.304C168.854 42.032 169.862 41.896 170.886 41.896C172.854 41.896 174.382 42.36 175.47 43.288C176.558 44.216 177.102 45.664 177.102 47.632V55H173.598ZM169.662 55.192C168.654 55.192 167.79 55.024 167.07 54.688C166.35 54.336 165.798 53.864 165.414 53.272C165.03 52.68 164.838 52.016 164.838 51.28C164.838 50.512 165.022 49.84 165.39 49.264C165.774 48.688 166.374 48.24 167.19 47.92C168.006 47.584 169.07 47.416 170.382 47.416H173.814V49.6H170.79C169.91 49.6 169.302 49.744 168.966 50.032C168.646 50.32 168.486 50.68 168.486 51.112C168.486 51.592 168.67 51.976 169.038 52.264C169.422 52.536 169.942 52.672 170.598 52.672C171.222 52.672 171.782 52.528 172.278 52.24C172.774 51.936 173.134 51.496 173.358 50.92L173.934 52.648C173.662 53.48 173.166 54.112 172.446 54.544C171.726 54.976 170.798 55.192 169.662 55.192ZM188.438 41.896C189.462 41.896 190.374 42.104 191.174 42.52C191.99 42.92 192.63 43.544 193.095 44.392C193.559 45.224 193.791 46.296 193.791 47.608V55H190.046V48.184C190.046 47.144 189.814 46.376 189.35 45.88C188.902 45.384 188.262 45.136 187.43 45.136C186.838 45.136 186.302 45.264 185.822 45.52C185.358 45.76 184.99 46.136 184.718 46.648C184.462 47.16 184.334 47.816 184.334 48.616V55H180.59V42.088H184.166V45.664L183.494 44.584C183.958 43.72 184.622 43.056 185.486 42.592C186.35 42.128 187.334 41.896 188.438 41.896ZM202.922 55.192C201.706 55.192 200.61 54.92 199.634 54.376C198.658 53.816 197.882 53.04 197.306 52.048C196.746 51.056 196.466 49.888 196.466 48.544C196.466 47.184 196.746 46.008 197.306 45.016C197.882 44.024 198.658 43.256 199.634 42.712C200.61 42.168 201.706 41.896 202.922 41.896C204.01 41.896 204.962 42.136 205.778 42.616C206.594 43.096 207.226 43.824 207.674 44.8C208.122 45.776 208.346 47.024 208.346 48.544C208.346 50.048 208.13 51.296 207.698 52.288C207.266 53.264 206.642 53.992 205.826 54.472C205.026 54.952 204.058 55.192 202.922 55.192ZM203.57 52.12C204.178 52.12 204.73 51.976 205.226 51.688C205.722 51.4 206.114 50.992 206.402 50.464C206.706 49.92 206.858 49.28 206.858 48.544C206.858 47.792 206.706 47.152 206.402 46.624C206.114 46.096 205.722 45.688 205.226 45.4C204.73 45.112 204.178 44.968 203.57 44.968C202.946 44.968 202.386 45.112 201.89 45.4C201.394 45.688 200.994 46.096 200.69 46.624C200.402 47.152 200.258 47.792 200.258 48.544C200.258 49.28 200.402 49.92 200.69 50.464C200.994 50.992 201.394 51.4 201.89 51.688C202.386 51.976 202.946 52.12 203.57 52.12ZM206.954 55V52.36L207.026 48.52L206.786 44.704V37.192H210.53V55H206.954ZM221.943 41.896C222.967 41.896 223.879 42.104 224.679 42.52C225.495 42.92 226.135 43.544 226.599 44.392C227.063 45.224 227.295 46.296 227.295 47.608V55H223.551V48.184C223.551 47.144 223.319 46.376 222.855 45.88C222.407 45.384 221.767 45.136 220.935 45.136C220.343 45.136 219.807 45.264 219.327 45.52C218.863 45.76 218.495 46.136 218.223 46.648C217.967 47.16 217.839 47.816 217.839 48.616V55H214.095V42.088H217.671V45.664L216.999 44.584C217.463 43.72 218.127 43.056 218.991 42.592C219.855 42.128 220.839 41.896 221.943 41.896ZM238.709 55V52.48L238.469 51.928V47.416C238.469 46.616 238.221 45.992 237.725 45.544C237.245 45.096 236.501 44.872 235.493 44.872C234.805 44.872 234.125 44.984 233.453 45.208C232.797 45.416 232.237 45.704 231.773 46.072L230.429 43.456C231.133 42.96 231.981 42.576 232.973 42.304C233.965 42.032 234.973 41.896 235.997 41.896C237.965 41.896 239.493 42.36 240.581 43.288C241.669 44.216 242.213 45.664 242.213 47.632V55H238.709ZM234.773 55.192C233.765 55.192 232.901 55.024 232.181 54.688C231.461 54.336 230.909 53.864 230.525 53.272C230.141 52.68 229.949 52.016 229.949 51.28C229.949 50.512 230.133 49.84 230.501 49.264C230.885 48.688 231.485 48.24 232.301 47.92C233.117 47.584 234.181 47.416 235.493 47.416H238.925V49.6H235.901C235.021 49.6 234.413 49.744 234.077 50.032C233.757 50.32 233.597 50.68 233.597 51.112C233.597 51.592 233.781 51.976 234.149 52.264C234.533 52.536 235.053 52.672 235.709 52.672C236.333 52.672 236.893 52.528 237.389 52.24C237.885 51.936 238.245 51.496 238.469 50.92L239.045 52.648C238.773 53.48 238.277 54.112 237.557 54.544C236.837 54.976 235.909 55.192 234.773 55.192ZM262.237 41.896C263.261 41.896 264.165 42.104 264.949 42.52C265.749 42.92 266.373 43.544 266.821 44.392C267.285 45.224 267.517 46.296 267.517 47.608V55H263.773V48.184C263.773 47.144 263.557 46.376 263.125 45.88C262.693 45.384 262.085 45.136 261.301 45.136C260.757 45.136 260.269 45.264 259.837 45.52C259.405 45.76 259.069 46.128 258.829 46.624C258.589 47.12 258.469 47.752 258.469 48.52V55H254.725V48.184C254.725 47.144 254.509 46.376 254.077 45.88C253.661 45.384 253.061 45.136 252.277 45.136C251.733 45.136 251.245 45.264 250.813 45.52C250.381 45.76 250.045 46.128 249.805 46.624C249.565 47.12 249.445 47.752 249.445 48.52V55H245.701V42.088H249.277V45.616L248.605 44.584C249.053 43.704 249.685 43.04 250.501 42.592C251.333 42.128 252.277 41.896 253.333 41.896C254.517 41.896 255.549 42.2 256.429 42.808C257.325 43.4 257.917 44.312 258.205 45.544L256.885 45.184C257.317 44.176 258.005 43.376 258.949 42.784C259.909 42.192 261.005 41.896 262.237 41.896ZM277.475 55.192C276.003 55.192 274.707 54.904 273.587 54.328C272.483 53.752 271.627 52.968 271.019 51.976C270.411 50.968 270.107 49.824 270.107 48.544C270.107 47.248 270.403 46.104 270.995 45.112C271.603 44.104 272.427 43.32 273.467 42.76C274.507 42.184 275.683 41.896 276.995 41.896C278.259 41.896 279.395 42.168 280.403 42.712C281.427 43.24 282.235 44.008 282.827 45.016C283.419 46.008 283.715 47.2 283.715 48.592C283.715 48.736 283.707 48.904 283.691 49.096C283.675 49.272 283.659 49.44 283.643 49.6H273.155V47.416H281.675L280.235 48.064C280.235 47.392 280.099 46.808 279.827 46.312C279.555 45.816 279.179 45.432 278.699 45.16C278.219 44.872 277.659 44.728 277.019 44.728C276.379 44.728 275.811 44.872 275.315 45.16C274.835 45.432 274.459 45.824 274.187 46.336C273.915 46.832 273.779 47.424 273.779 48.112V48.688C273.779 49.392 273.931 50.016 274.235 50.56C274.555 51.088 274.995 51.496 275.555 51.784C276.131 52.056 276.803 52.192 277.571 52.192C278.259 52.192 278.859 52.088 279.371 51.88C279.899 51.672 280.379 51.36 280.811 50.944L282.803 53.104C282.211 53.776 281.467 54.296 280.571 54.664C279.675 55.016 278.643 55.192 277.475 55.192Z" fill="#ECECEC"/>
<g clip-path="url(#clip1_1_35)">
<g clip-path="url(#clip2_1_35)">
<g clip-path="url(#clip3_1_35)">
<path d="M371.057 40.2H373.325V50H371.057V40.2ZM366.605 50H364.337V40.2H366.605V50ZM371.225 45.982H366.437V44.064H371.225V45.982ZM379.273 50.112C378.471 50.112 377.757 49.944 377.131 49.608C376.515 49.272 376.025 48.8147 375.661 48.236C375.307 47.648 375.129 46.9807 375.129 46.234C375.129 45.478 375.307 44.8107 375.661 44.232C376.025 43.644 376.515 43.1867 377.131 42.86C377.757 42.524 378.471 42.356 379.273 42.356C380.067 42.356 380.776 42.524 381.401 42.86C382.027 43.1867 382.517 43.6393 382.871 44.218C383.226 44.7967 383.403 45.4687 383.403 46.234C383.403 46.9807 383.226 47.648 382.871 48.236C382.517 48.8147 382.027 49.272 381.401 49.608C380.776 49.944 380.067 50.112 379.273 50.112ZM379.273 48.32C379.637 48.32 379.964 48.236 380.253 48.068C380.543 47.9 380.771 47.662 380.939 47.354C381.107 47.0367 381.191 46.6633 381.191 46.234C381.191 45.7953 381.107 45.422 380.939 45.114C380.771 44.806 380.543 44.568 380.253 44.4C379.964 44.232 379.637 44.148 379.273 44.148C378.909 44.148 378.583 44.232 378.293 44.4C378.004 44.568 377.771 44.806 377.593 45.114C377.425 45.422 377.341 45.7953 377.341 46.234C377.341 46.6633 377.425 47.0367 377.593 47.354C377.771 47.662 378.004 47.9 378.293 48.068C378.583 48.236 378.909 48.32 379.273 48.32ZM394.709 42.356C395.306 42.356 395.834 42.4773 396.291 42.72C396.758 42.9533 397.122 43.3173 397.383 43.812C397.654 44.2973 397.789 44.9227 397.789 45.688V50H395.605V46.024C395.605 45.4173 395.479 44.9693 395.227 44.68C394.975 44.3907 394.62 44.246 394.163 44.246C393.846 44.246 393.561 44.3207 393.309 44.47C393.057 44.61 392.861 44.8247 392.721 45.114C392.581 45.4033 392.511 45.772 392.511 46.22V50H390.327V46.024C390.327 45.4173 390.201 44.9693 389.949 44.68C389.706 44.3907 389.356 44.246 388.899 44.246C388.582 44.246 388.297 44.3207 388.045 44.47C387.793 44.61 387.597 44.8247 387.457 45.114C387.317 45.4033 387.247 45.772 387.247 46.22V50H385.063V42.468H387.149V44.526L386.757 43.924C387.018 43.4107 387.387 43.0233 387.863 42.762C388.348 42.4913 388.899 42.356 389.515 42.356C390.206 42.356 390.808 42.5333 391.321 42.888C391.844 43.2333 392.189 43.7653 392.357 44.484L391.587 44.274C391.839 43.686 392.24 43.2193 392.791 42.874C393.351 42.5287 393.99 42.356 394.709 42.356ZM403.739 50.112C402.881 50.112 402.125 49.944 401.471 49.608C400.827 49.272 400.328 48.8147 399.973 48.236C399.619 47.648 399.441 46.9807 399.441 46.234C399.441 45.478 399.614 44.8107 399.959 44.232C400.314 43.644 400.795 43.1867 401.401 42.86C402.008 42.524 402.694 42.356 403.459 42.356C404.197 42.356 404.859 42.5147 405.447 42.832C406.045 43.14 406.516 43.588 406.861 44.176C407.207 44.7547 407.379 45.45 407.379 46.262C407.379 46.346 407.375 46.444 407.365 46.556C407.356 46.6587 407.347 46.7567 407.337 46.85H401.219V45.576H406.189L405.349 45.954C405.349 45.562 405.27 45.2213 405.111 44.932C404.953 44.6427 404.733 44.4187 404.453 44.26C404.173 44.092 403.847 44.008 403.473 44.008C403.1 44.008 402.769 44.092 402.479 44.26C402.199 44.4187 401.98 44.6473 401.821 44.946C401.663 45.2353 401.583 45.5807 401.583 45.982V46.318C401.583 46.7287 401.672 47.0927 401.849 47.41C402.036 47.718 402.293 47.956 402.619 48.124C402.955 48.2827 403.347 48.362 403.795 48.362C404.197 48.362 404.547 48.3013 404.845 48.18C405.153 48.0587 405.433 47.8767 405.685 47.634L406.847 48.894C406.502 49.286 406.068 49.5893 405.545 49.804C405.023 50.0093 404.421 50.112 403.739 50.112Z" fill="white"/>
</g>
</g>
<g clip-path="url(#clip4_1_35)">
<g clip-path="url(#clip5_1_35)">
<path d="M433.159 40.214C434.661 40.214 435.753 40.508 436.435 41.096C437.125 41.6747 437.471 42.5707 437.471 43.784C437.471 44.988 437.116 45.87 436.407 46.43C435.707 46.99 434.633 47.27 433.187 47.27H431.885V50H429.701V40.214H433.159ZM433.355 45.38C434.083 45.38 434.577 45.2353 434.839 44.946C435.1 44.6473 435.231 44.218 435.231 43.658C435.231 43.0887 435.058 42.6873 434.713 42.454C434.377 42.2113 433.849 42.09 433.131 42.09H431.885V45.38H433.355ZM443.127 44.316C442.502 44.316 442.035 44.54 441.727 44.988C441.419 45.4267 441.265 46.01 441.265 46.738V50H439.165V42.468H441.265V43.462C441.536 43.154 441.872 42.8927 442.273 42.678C442.684 42.4633 443.099 42.3513 443.519 42.342L443.533 44.316H443.127ZM446.692 46.234C446.692 46.85 446.864 47.354 447.21 47.746C447.564 48.1287 448.012 48.32 448.554 48.32C449.104 48.32 449.552 48.1287 449.898 47.746C450.252 47.354 450.43 46.85 450.43 46.234C450.43 45.618 450.252 45.114 449.898 44.722C449.552 44.33 449.104 44.134 448.554 44.134C448.012 44.134 447.564 44.33 447.21 44.722C446.864 45.114 446.692 45.618 446.692 46.234ZM452.544 46.234C452.544 47.326 452.166 48.2453 451.41 48.992C450.654 49.7387 449.702 50.112 448.554 50.112C447.415 50.112 446.468 49.7387 445.712 48.992C444.956 48.2453 444.578 47.326 444.578 46.234C444.578 45.142 444.956 44.2227 445.712 43.476C446.468 42.72 447.415 42.342 448.554 42.342C449.702 42.342 450.654 42.72 451.41 43.476C452.166 44.2227 452.544 45.142 452.544 46.234ZM457.314 50.112C456.427 50.112 455.634 49.734 454.934 48.978C454.234 48.222 453.884 47.284 453.884 46.164C453.884 45.044 454.224 44.1293 454.906 43.42C455.587 42.7013 456.385 42.342 457.3 42.342C458.214 42.342 458.961 42.664 459.54 43.308V39.612H461.64V50H459.54V49.006C458.952 49.7433 458.21 50.112 457.314 50.112ZM455.998 46.248C455.998 46.8547 456.18 47.354 456.544 47.746C456.908 48.1287 457.332 48.32 457.818 48.32C458.303 48.32 458.714 48.1287 459.05 47.746C459.395 47.354 459.568 46.8547 459.568 46.248C459.568 45.632 459.395 45.1233 459.05 44.722C458.714 44.3113 458.298 44.106 457.804 44.106C457.309 44.106 456.884 44.3113 456.53 44.722C456.175 45.1327 455.998 45.6413 455.998 46.248ZM468.686 46.528V42.468H470.8V50H468.686V49.006C468.163 49.7433 467.486 50.112 466.656 50.112C465.834 50.112 465.144 49.8553 464.584 49.342C464.024 48.8193 463.744 48.0493 463.744 47.032V42.468H465.858V46.57C465.858 47.7273 466.282 48.306 467.132 48.306C467.552 48.306 467.916 48.1567 468.224 47.858C468.532 47.55 468.686 47.1067 468.686 46.528ZM476.595 48.25C477.295 48.25 477.925 47.9 478.485 47.2L479.731 48.6C478.76 49.608 477.71 50.112 476.581 50.112C475.452 50.112 474.495 49.7573 473.711 49.048C472.936 48.3293 472.549 47.396 472.549 46.248C472.549 45.0907 472.941 44.1527 473.725 43.434C474.518 42.706 475.456 42.342 476.539 42.342C477.08 42.342 477.626 42.454 478.177 42.678C478.737 42.902 479.227 43.2333 479.647 43.672L478.555 45.1C478.312 44.8107 478.014 44.5867 477.659 44.428C477.314 44.2693 476.968 44.19 476.623 44.19C476.072 44.19 475.596 44.372 475.195 44.736C474.803 45.0907 474.607 45.59 474.607 46.234C474.607 46.8687 474.803 47.3633 475.195 47.718C475.596 48.0727 476.063 48.25 476.595 48.25ZM483.837 43.98V47.354C483.837 47.6433 483.912 47.872 484.061 48.04C484.211 48.1987 484.388 48.278 484.593 48.278C484.985 48.278 485.317 48.1007 485.587 47.746L486.371 49.216C485.718 49.8133 485.027 50.112 484.299 50.112C483.581 50.112 482.969 49.874 482.465 49.398C481.971 48.922 481.723 48.2733 481.723 47.452V43.98H480.841V42.468H481.723V40.214H483.837V42.468H485.657V43.98H483.837Z" fill="white"/>
</g>
</g>
<g clip-path="url(#clip6_1_35)">
<g clip-path="url(#clip7_1_35)">
<path d="M508.421 50V40.2H512.663C513.541 40.2 514.297 40.3447 514.931 40.634C515.566 40.914 516.056 41.32 516.401 41.852C516.747 42.384 516.919 43.0187 516.919 43.756C516.919 44.484 516.747 45.114 516.401 45.646C516.056 46.178 515.566 46.5887 514.931 46.878C514.297 47.158 513.541 47.298 512.663 47.298H509.681L510.689 46.276V50H508.421ZM510.689 46.528L509.681 45.45H512.537C513.237 45.45 513.76 45.3007 514.105 45.002C514.451 44.7033 514.623 44.288 514.623 43.756C514.623 43.2147 514.451 42.7947 514.105 42.496C513.76 42.1973 513.237 42.048 512.537 42.048H509.681L510.689 40.97V46.528ZM518.571 50V42.468H520.657V44.596L520.363 43.98C520.587 43.448 520.946 43.0467 521.441 42.776C521.936 42.496 522.538 42.356 523.247 42.356V44.372C523.154 44.3627 523.07 44.358 522.995 44.358C522.92 44.3487 522.841 44.344 522.757 44.344C522.16 44.344 521.674 44.5167 521.301 44.862C520.937 45.198 520.755 45.7253 520.755 46.444V50H518.571ZM524.759 50V42.468H526.943V50H524.759ZM525.851 41.418C525.45 41.418 525.123 41.3013 524.871 41.068C524.619 40.8347 524.493 40.5453 524.493 40.2C524.493 39.8547 524.619 39.5653 524.871 39.332C525.123 39.0987 525.45 38.982 525.851 38.982C526.253 38.982 526.579 39.094 526.831 39.318C527.083 39.5327 527.209 39.8127 527.209 40.158C527.209 40.522 527.083 40.8253 526.831 41.068C526.589 41.3013 526.262 41.418 525.851 41.418ZM532.81 50.112C531.998 50.112 531.275 49.9487 530.64 49.622C530.005 49.286 529.506 48.824 529.142 48.236C528.787 47.648 528.61 46.9807 528.61 46.234C528.61 45.478 528.787 44.8107 529.142 44.232C529.506 43.644 530.005 43.1867 530.64 42.86C531.275 42.524 531.998 42.356 532.81 42.356C533.603 42.356 534.294 42.524 534.882 42.86C535.47 43.1867 535.904 43.658 536.184 44.274L534.49 45.184C534.294 44.8293 534.047 44.568 533.748 44.4C533.459 44.232 533.141 44.148 532.796 44.148C532.423 44.148 532.087 44.232 531.788 44.4C531.489 44.568 531.251 44.806 531.074 45.114C530.906 45.422 530.822 45.7953 530.822 46.234C530.822 46.6727 530.906 47.046 531.074 47.354C531.251 47.662 531.489 47.9 531.788 48.068C532.087 48.236 532.423 48.32 532.796 48.32C533.141 48.32 533.459 48.2407 533.748 48.082C534.047 47.914 534.294 47.648 534.49 47.284L536.184 48.208C535.904 48.8147 535.47 49.286 534.882 49.622C534.294 49.9487 533.603 50.112 532.81 50.112ZM537.601 50V42.468H539.785V50H537.601ZM538.693 41.418C538.291 41.418 537.965 41.3013 537.713 41.068C537.461 40.8347 537.335 40.5453 537.335 40.2C537.335 39.8547 537.461 39.5653 537.713 39.332C537.965 39.0987 538.291 38.982 538.693 38.982C539.094 38.982 539.421 39.094 539.673 39.318C539.925 39.5327 540.051 39.8127 540.051 40.158C540.051 40.522 539.925 40.8253 539.673 41.068C539.43 41.3013 539.103 41.418 538.693 41.418ZM546.59 42.356C547.187 42.356 547.719 42.4773 548.186 42.72C548.662 42.9533 549.035 43.3173 549.306 43.812C549.576 44.2973 549.712 44.9227 549.712 45.688V50H547.528V46.024C547.528 45.4173 547.392 44.9693 547.122 44.68C546.86 44.3907 546.487 44.246 546.002 44.246C545.656 44.246 545.344 44.3207 545.064 44.47C544.793 44.61 544.578 44.8293 544.42 45.128C544.27 45.4267 544.196 45.8093 544.196 46.276V50H542.012V42.468H544.098V44.554L543.706 43.924C543.976 43.42 544.364 43.0327 544.868 42.762C545.372 42.4913 545.946 42.356 546.59 42.356ZM555.488 52.828C554.779 52.828 554.093 52.7393 553.43 52.562C552.777 52.394 552.231 52.1373 551.792 51.792L552.66 50.224C552.977 50.4853 553.379 50.6907 553.864 50.84C554.359 50.9987 554.844 51.078 555.32 51.078C556.095 51.078 556.655 50.9053 557 50.56C557.355 50.2147 557.532 49.7013 557.532 49.02V47.886L557.672 45.996L557.644 44.092V42.468H559.716V48.74C559.716 50.14 559.352 51.1713 558.624 51.834C557.896 52.4967 556.851 52.828 555.488 52.828ZM555.152 49.636C554.452 49.636 553.817 49.4867 553.248 49.188C552.688 48.88 552.235 48.4553 551.89 47.914C551.554 47.3633 551.386 46.724 551.386 45.996C551.386 45.2587 551.554 44.6193 551.89 44.078C552.235 43.5273 552.688 43.1027 553.248 42.804C553.817 42.5053 554.452 42.356 555.152 42.356C555.787 42.356 556.347 42.4867 556.832 42.748C557.317 43 557.695 43.3967 557.966 43.938C558.237 44.47 558.372 45.156 558.372 45.996C558.372 46.8267 558.237 47.5127 557.966 48.054C557.695 48.586 557.317 48.9827 556.832 49.244C556.347 49.5053 555.787 49.636 555.152 49.636ZM555.586 47.844C555.969 47.844 556.309 47.7693 556.608 47.62C556.907 47.4613 557.14 47.242 557.308 46.962C557.476 46.682 557.56 46.36 557.56 45.996C557.56 45.6227 557.476 45.3007 557.308 45.03C557.14 44.75 556.907 44.5353 556.608 44.386C556.309 44.2273 555.969 44.148 555.586 44.148C555.203 44.148 554.863 44.2273 554.564 44.386C554.265 44.5353 554.027 44.75 553.85 45.03C553.682 45.3007 553.598 45.6227 553.598 45.996C553.598 46.36 553.682 46.682 553.85 46.962C554.027 47.242 554.265 47.4613 554.564 47.62C554.863 47.7693 555.203 47.844 555.586 47.844Z" fill="white"/>
</g>
</g>
<g clip-path="url(#clip8_1_35)">
<g clip-path="url(#clip9_1_35)">
<path d="M586.763 48.068C587.836 48.068 588.714 47.6433 589.395 46.794L590.795 48.236C589.684 49.4867 588.373 50.112 586.861 50.112C585.358 50.112 584.117 49.636 583.137 48.684C582.166 47.732 581.681 46.5327 581.681 45.086C581.681 43.63 582.176 42.4167 583.165 41.446C584.164 40.4753 585.382 39.99 586.819 39.99C588.424 39.99 589.768 40.6013 590.851 41.824L589.493 43.364C588.802 42.5053 587.944 42.076 586.917 42.076C586.096 42.076 585.391 42.3467 584.803 42.888C584.224 43.42 583.935 44.1433 583.935 45.058C583.935 45.9633 584.21 46.6913 584.761 47.242C585.312 47.7927 585.979 48.068 586.763 48.068ZM593.892 46.234C593.892 46.85 594.065 47.354 594.41 47.746C594.765 48.1287 595.213 48.32 595.754 48.32C596.305 48.32 596.753 48.1287 597.098 47.746C597.453 47.354 597.63 46.85 597.63 46.234C597.63 45.618 597.453 45.114 597.098 44.722C596.753 44.33 596.305 44.134 595.754 44.134C595.213 44.134 594.765 44.33 594.41 44.722C594.065 45.114 593.892 45.618 593.892 46.234ZM599.744 46.234C599.744 47.326 599.366 48.2453 598.61 48.992C597.854 49.7387 596.902 50.112 595.754 50.112C594.615 50.112 593.668 49.7387 592.912 48.992C592.156 48.2453 591.778 47.326 591.778 46.234C591.778 45.142 592.156 44.2227 592.912 43.476C593.668 42.72 594.615 42.342 595.754 42.342C596.902 42.342 597.854 42.72 598.61 43.476C599.366 44.2227 599.744 45.142 599.744 46.234ZM603.604 45.8V50H601.504V42.468H603.604V43.308C604.239 42.664 604.953 42.342 605.746 42.342C606.539 42.342 607.202 42.622 607.734 43.182C608.275 43.742 608.546 44.4887 608.546 45.422V50H606.446V45.744C606.446 44.5867 606.021 44.008 605.172 44.008C604.752 44.008 604.383 44.162 604.066 44.47C603.758 44.7687 603.604 45.212 603.604 45.8ZM613.042 43.98V47.354C613.042 47.6433 613.117 47.872 613.266 48.04C613.415 48.1987 613.593 48.278 613.798 48.278C614.19 48.278 614.521 48.1007 614.792 47.746L615.576 49.216C614.923 49.8133 614.232 50.112 613.504 50.112C612.785 50.112 612.174 49.874 611.67 49.398C611.175 48.922 610.928 48.2733 610.928 47.452V43.98H610.046V42.468H610.928V40.214H613.042V42.468H614.862V43.98H613.042ZM623.3 50H621.326V49.09C620.785 49.7713 620.113 50.112 619.31 50.112C618.517 50.112 617.849 49.8833 617.308 49.426C616.767 48.9593 616.496 48.3433 616.496 47.578C616.496 46.8033 616.776 46.2247 617.336 45.842C617.896 45.4593 618.661 45.268 619.632 45.268H621.2V45.226C621.2 44.4233 620.775 44.022 619.926 44.022C619.562 44.022 619.175 44.0967 618.764 44.246C618.363 44.386 618.022 44.5633 617.742 44.778L616.804 43.42C617.793 42.7013 618.923 42.342 620.192 42.342C621.107 42.342 621.853 42.5707 622.432 43.028C623.011 43.4853 623.3 44.2087 623.3 45.198V50ZM621.186 47.13V46.766H619.87C619.03 46.766 618.61 47.0273 618.61 47.55C618.61 47.8207 618.708 48.0307 618.904 48.18C619.109 48.32 619.399 48.39 619.772 48.39C620.145 48.39 620.472 48.278 620.752 48.054C621.041 47.8207 621.186 47.5127 621.186 47.13ZM629.027 48.25C629.727 48.25 630.357 47.9 630.917 47.2L632.163 48.6C631.192 49.608 630.142 50.112 629.013 50.112C627.883 50.112 626.927 49.7573 626.143 49.048C625.368 48.3293 624.981 47.396 624.981 46.248C624.981 45.0907 625.373 44.1527 626.157 43.434C626.95 42.706 627.888 42.342 628.971 42.342C629.512 42.342 630.058 42.454 630.609 42.678C631.169 42.902 631.659 43.2333 632.079 43.672L630.987 45.1C630.744 44.8107 630.445 44.5867 630.091 44.428C629.745 44.2693 629.4 44.19 629.055 44.19C628.504 44.19 628.028 44.372 627.627 44.736C627.235 45.0907 627.039 45.59 627.039 46.234C627.039 46.8687 627.235 47.3633 627.627 47.718C628.028 48.0727 628.495 48.25 629.027 48.25ZM636.269 43.98V47.354C636.269 47.6433 636.344 47.872 636.493 48.04C636.642 48.1987 636.82 48.278 637.025 48.278C637.417 48.278 637.748 48.1007 638.019 47.746L638.803 49.216C638.15 49.8133 637.459 50.112 636.731 50.112C636.012 50.112 635.401 49.874 634.897 49.398C634.402 48.922 634.155 48.2733 634.155 47.452V43.98H633.273V42.468H634.155V40.214H636.269V42.468H638.089V43.98H636.269Z" fill="white"/>
</g>
</g>
</g>
<g clip-path="url(#clip10_1_35)">
<g clip-path="url(#clip11_1_35)">
<path d="M881.084 50V40.214H883.268V48.054H887.44V50H881.084ZM890.615 46.234C890.615 46.85 890.788 47.354 891.133 47.746C891.488 48.1287 891.936 48.32 892.477 48.32C893.028 48.32 893.476 48.1287 893.821 47.746C894.176 47.354 894.353 46.85 894.353 46.234C894.353 45.618 894.176 45.114 893.821 44.722C893.476 44.33 893.028 44.134 892.477 44.134C891.936 44.134 891.488 44.33 891.133 44.722C890.788 45.114 890.615 45.618 890.615 46.234ZM896.467 46.234C896.467 47.326 896.089 48.2453 895.333 48.992C894.577 49.7387 893.625 50.112 892.477 50.112C891.338 50.112 890.391 49.7387 889.635 48.992C888.879 48.2453 888.501 47.326 888.501 46.234C888.501 45.142 888.879 44.2227 889.635 43.476C890.391 42.72 891.338 42.342 892.477 42.342C893.625 42.342 894.577 42.72 895.333 43.476C896.089 44.2227 896.467 45.142 896.467 46.234ZM903.505 46.08C903.505 45.4733 903.337 44.9973 903.001 44.652C902.665 44.3067 902.249 44.134 901.755 44.134C901.26 44.134 900.831 44.3067 900.467 44.652C900.112 44.9973 899.935 45.4687 899.935 46.066C899.935 46.6633 900.107 47.1487 900.453 47.522C900.807 47.886 901.237 48.068 901.741 48.068C902.245 48.068 902.665 47.886 903.001 47.522C903.337 47.158 903.505 46.6773 903.505 46.08ZM903.799 48.726C903.136 49.4633 902.31 49.832 901.321 49.832C900.341 49.832 899.51 49.5007 898.829 48.838C898.157 48.166 897.821 47.2747 897.821 46.164C897.821 45.044 898.166 44.1293 898.857 43.42C899.557 42.7013 900.355 42.342 901.251 42.342C902.147 42.342 902.889 42.7107 903.477 43.448V42.454H905.577V49.02C905.577 49.692 905.46 50.2893 905.227 50.812C904.993 51.3347 904.681 51.7453 904.289 52.044C903.514 52.66 902.599 52.968 901.545 52.968C900.985 52.968 900.411 52.8747 899.823 52.688C899.244 52.5107 898.735 52.254 898.297 51.918L899.109 50.336C899.799 50.8587 900.527 51.12 901.293 51.12C902.067 51.12 902.679 50.9287 903.127 50.546C903.575 50.1633 903.799 49.5567 903.799 48.726ZM909.865 50H907.765V42.468H909.865V50ZM907.933 41.516C907.699 41.2733 907.583 40.9793 907.583 40.634C907.583 40.2887 907.699 39.9993 907.933 39.766C908.175 39.5233 908.469 39.402 908.815 39.402C909.16 39.402 909.449 39.5233 909.683 39.766C909.925 39.9993 910.047 40.2887 910.047 40.634C910.047 40.9793 909.925 41.2733 909.683 41.516C909.449 41.7493 909.16 41.866 908.815 41.866C908.469 41.866 908.175 41.7493 907.933 41.516ZM914.153 45.8V50H912.053V42.468H914.153V43.308C914.787 42.664 915.501 42.342 916.295 42.342C917.088 42.342 917.751 42.622 918.283 43.182C918.824 43.742 919.095 44.4887 919.095 45.422V50H916.995V45.744C916.995 44.5867 916.57 44.008 915.721 44.008C915.301 44.008 914.932 44.162 914.615 44.47C914.307 44.7687 914.153 45.212 914.153 45.8Z" fill="white"/>
</g>
</g>
<path d="M965.5 24C965.5 21.5147 967.515 19.5 970 19.5H1097C1099.49 19.5 1101.5 21.5147 1101.5 24V66C1101.5 68.4853 1099.49 70.5 1097 70.5H970C967.515 70.5 965.5 68.4853 965.5 66V24Z" fill="#FF6551"/>
<path d="M965.5 24C965.5 21.5147 967.515 19.5 970 19.5H1097C1099.49 19.5 1101.5 21.5147 1101.5 24V66C1101.5 68.4853 1099.49 70.5 1097 70.5H970C967.515 70.5 965.5 68.4853 965.5 66V24Z" stroke="black"/>
<path d="M991.568 42.09V40.214H996.664V46.598C996.664 47.7647 996.361 48.6373 995.754 49.216C995.157 49.7947 994.387 50.084 993.444 50.084C992.268 50.084 991.241 49.6313 990.364 48.726L991.498 47.158C992.086 47.7927 992.702 48.11 993.346 48.11C993.654 48.11 993.915 47.9933 994.13 47.76C994.354 47.5173 994.466 47.158 994.466 46.682V42.09H991.568ZM1006.67 45.058C1006.67 44.1807 1006.39 43.434 1005.83 42.818C1005.27 42.202 1004.58 41.894 1003.76 41.894C1002.95 41.894 1002.26 42.202 1001.7 42.818C1001.14 43.434 1000.86 44.1807 1000.86 45.058C1000.86 45.926 1001.14 46.668 1001.7 47.284C1002.26 47.8907 1002.95 48.194 1003.76 48.194C1004.58 48.194 1005.27 47.8907 1005.83 47.284C1006.39 46.668 1006.67 45.926 1006.67 45.058ZM1007.42 48.656C1006.43 49.6173 1005.21 50.098 1003.76 50.098C1002.31 50.098 1001.1 49.6173 1000.11 48.656C999.118 47.6853 998.623 46.4813 998.623 45.044C998.623 43.6067 999.118 42.4073 1000.11 41.446C1001.1 40.4753 1002.31 39.99 1003.76 39.99C1005.21 39.99 1006.43 40.4753 1007.42 41.446C1008.4 42.4073 1008.9 43.6067 1008.9 45.044C1008.9 46.4813 1008.4 47.6853 1007.42 48.656ZM1010.95 40.214H1013.13V50H1010.95V40.214ZM1022.59 40.214H1024.77V50H1022.59L1017.93 43.868V50H1015.74V40.214H1017.79L1022.59 46.514V40.214ZM1033.87 47.48C1034.23 47.928 1034.72 48.152 1035.34 48.152C1035.95 48.152 1036.44 47.928 1036.79 47.48C1037.16 47.0227 1037.34 46.402 1037.34 45.618V40.214H1039.52V45.688C1039.52 47.1067 1039.13 48.1987 1038.35 48.964C1037.56 49.72 1036.56 50.098 1035.34 50.098C1034.12 50.098 1033.11 49.7153 1032.31 48.95C1031.53 48.1847 1031.14 47.0973 1031.14 45.688V40.214H1033.32V45.618C1033.32 46.402 1033.5 47.0227 1033.87 47.48ZM1045.14 41.908C1044.78 41.908 1044.49 41.9967 1044.27 42.174C1044.07 42.342 1043.97 42.5707 1043.97 42.86C1043.97 43.14 1044.09 43.364 1044.34 43.532C1044.61 43.7 1045.2 43.9007 1046.12 44.134C1047.06 44.358 1047.78 44.6987 1048.29 45.156C1048.81 45.6133 1049.06 46.2807 1049.06 47.158C1049.06 48.0353 1048.73 48.7493 1048.07 49.3C1047.41 49.8413 1046.55 50.112 1045.48 50.112C1043.93 50.112 1042.53 49.538 1041.29 48.39L1042.59 46.794C1043.65 47.718 1044.62 48.18 1045.52 48.18C1045.92 48.18 1046.23 48.096 1046.46 47.928C1046.69 47.7507 1046.81 47.5173 1046.81 47.228C1046.81 46.9293 1046.69 46.696 1046.44 46.528C1046.2 46.3507 1045.72 46.1733 1045 45.996C1043.86 45.7253 1043.03 45.3753 1042.5 44.946C1041.97 44.5073 1041.71 43.826 1041.71 42.902C1041.71 41.9687 1042.04 41.25 1042.71 40.746C1043.38 40.242 1044.21 39.99 1045.21 39.99C1045.87 39.99 1046.52 40.102 1047.17 40.326C1047.83 40.55 1048.39 40.8673 1048.88 41.278L1047.77 42.874C1046.92 42.23 1046.05 41.908 1045.14 41.908Z" fill="white"/>
<g clip-path="url(#clip12_1_35)">
<path fill-rule="evenodd" clip-rule="evenodd" d="M1065 45C1065 44.8106 1065.08 44.6289 1065.22 44.495C1065.36 44.3611 1065.55 44.2858 1065.75 44.2858H1074.44L1071.22 41.2207C1071.08 41.0866 1071 40.9047 1071 40.7151C1071 40.5254 1071.08 40.3435 1071.22 40.2094C1071.36 40.0753 1071.55 40 1071.75 40C1071.95 40 1072.14 40.0753 1072.28 40.2094L1076.78 44.4944C1076.85 44.5607 1076.9 44.6395 1076.94 44.7263C1076.98 44.8131 1077 44.9061 1077 45C1077 45.0939 1076.98 45.1869 1076.94 45.2737C1076.9 45.3605 1076.85 45.4393 1076.78 45.5056L1072.28 49.7906C1072.14 49.9247 1071.95 50 1071.75 50C1071.55 50 1071.36 49.9247 1071.22 49.7906C1071.08 49.6565 1071 49.4746 1071 49.2849C1071 49.0953 1071.08 48.9134 1071.22 48.7793L1074.44 45.7142H1065.75C1065.55 45.7142 1065.36 45.6389 1065.22 45.505C1065.08 45.3711 1065 45.1894 1065 45Z" fill="white"/>
</g>
</g>
<defs>
<clipPath id="clip0_1_35">
<rect width="1322" height="91" fill="white"/>
</clipPath>
<clipPath id="clip1_1_35">
<rect width="275" height="24" fill="white" transform="translate(364 33)"/>
</clipPath>
<clipPath id="clip2_1_35">
<rect width="43" height="24" fill="white" transform="translate(364 33)"/>
</clipPath>
<clipPath id="clip3_1_35">
<rect width="43" height="24" fill="white" transform="translate(364 33)"/>
</clipPath>
<clipPath id="clip4_1_35">
<rect width="59" height="24" fill="white" transform="translate(428 33)"/>
</clipPath>
<clipPath id="clip5_1_35">
<rect width="59" height="24" fill="white" transform="translate(428 33)"/>
</clipPath>
<clipPath id="clip6_1_35">
<rect width="52" height="24" fill="white" transform="translate(508 33)"/>
</clipPath>
<clipPath id="clip7_1_35">
<rect width="52" height="24" fill="white" transform="translate(508 33)"/>
</clipPath>
<clipPath id="clip8_1_35">
<rect width="58" height="24" fill="white" transform="translate(581 33)"/>
</clipPath>
<clipPath id="clip9_1_35">
<rect width="58" height="24" fill="white" transform="translate(581 33)"/>
</clipPath>
<clipPath id="clip10_1_35">
<rect width="41" height="22" fill="white" transform="translate(879 34)"/>
</clipPath>
<clipPath id="clip11_1_35">
<rect width="41" height="22" fill="white" transform="translate(879 34)"/>
</clipPath>
<clipPath id="clip12_1_35">
<rect width="12" height="10" fill="white" transform="translate(1065 40)"/>
</clipPath>
</defs>
</svg>
