<svg width="23" height="23" viewBox="0 0 23 23" fill="none" xmlns="http://www.w3.org/2000/svg">
<path d="M20.1366 8.41939C20.079 8.24958 19.9729 8.10037 19.8314 7.99018C19.6899 7.87999 19.5192 7.81365 19.3405 7.79934L14.1113 7.38383L11.8485 2.37482C11.7764 2.21349 11.6592 2.07646 11.511 1.98028C11.3628 1.88409 11.1899 1.83286 11.0132 1.83276C10.8365 1.83267 10.6636 1.88371 10.5152 1.97973C10.3669 2.07575 10.2495 2.21265 10.1773 2.3739L7.91448 7.38383L2.68533 7.79934C2.50964 7.81326 2.34167 7.8775 2.20154 7.98438C2.0614 8.09125 1.95502 8.23624 1.89512 8.40199C1.83523 8.56774 1.82435 8.74724 1.8638 8.91901C1.90325 9.09078 1.99135 9.24755 2.11756 9.37056L5.98187 13.1376L4.61519 19.0556C4.57369 19.2348 4.58699 19.4222 4.65336 19.5937C4.71974 19.7652 4.83612 19.9128 4.9874 20.0173C5.13869 20.1218 5.3179 20.1785 5.50177 20.1799C5.68565 20.1813 5.86569 20.1274 6.01856 20.0252L11.0129 16.6956L16.0072 20.0252C16.1635 20.1289 16.3477 20.1823 16.5352 20.1782C16.7227 20.1741 16.9045 20.1126 17.056 20.0022C17.2075 19.8917 17.3216 19.7374 17.3829 19.5602C17.4441 19.3829 17.4497 19.1912 17.3987 19.0107L15.7211 13.1404L19.8816 9.39625C20.1541 9.15043 20.254 8.76702 20.1366 8.41939Z" fill="#F3CD03"/>
</svg>
