<svg width="32" height="32" viewBox="0 0 32 32" fill="none" xmlns="http://www.w3.org/2000/svg">
<g clip-path="url(#clip0_1_89)">
<g clip-path="url(#clip1_1_89)">
<path d="M11.2754 21.6057H20.7247V26.3304H11.2754V21.6057Z" fill="#E74040"/>
<path d="M16 3.6521C10.2686 3.6521 5.60573 8.31502 5.60573 14.0464V28.2203C5.60573 30.3045 7.30131 32.0001 9.38546 32.0001H22.6145C24.6987 32.0001 26.3942 30.3045 26.3942 28.2203V14.0464C26.3942 8.31496 21.7314 3.6521 16 3.6521ZM10.3304 12.1565H21.6696V14.0464H19.7797V15.9362H17.8898V14.0464H10.3304V12.1565ZM22.6145 28.2203H9.38546V19.7159H22.6145V28.2203Z" fill="#E74040"/>
<path d="M25.7047 1.83877L20.3416 0L19.5572 2.288C21.4524 2.86245 23.155 3.88336 24.5427 5.22799L25.7047 1.83877Z" fill="#E74040"/>
<path d="M12.4429 2.288L11.6584 0L6.2953 1.83877L7.45731 5.22799C8.84498 3.88342 10.5477 2.86245 12.4429 2.288Z" fill="#E74040"/>
</g>
</g>
<defs>
<clipPath id="clip0_1_89">
<rect width="32" height="32" fill="white"/>
</clipPath>
<clipPath id="clip1_1_89">
<rect width="20.7885" height="32" fill="white" transform="translate(5.60573)"/>
</clipPath>
</defs>
</svg>
