<svg width="23" height="23" viewBox="0 0 23 23" fill="none" xmlns="http://www.w3.org/2000/svg">
<path d="M6.16267 13.3044L4.79599 19.2224C4.75367 19.4016 4.76638 19.5894 4.83245 19.7613C4.89852 19.9331 5.01488 20.0811 5.16634 20.1858C5.3178 20.2905 5.49732 20.3471 5.68144 20.3482C5.86557 20.3493 6.04575 20.2948 6.19844 20.1919L11.1928 16.8624L16.1871 20.1919C16.3434 20.2957 16.5276 20.3491 16.7151 20.345C16.9026 20.3408 17.0843 20.2794 17.2359 20.1689C17.3874 20.0584 17.5015 19.9042 17.5628 19.727C17.624 19.5497 17.6295 19.358 17.5786 19.1775L15.9009 13.3072L20.0615 9.56302C20.1948 9.44304 20.2899 9.28663 20.3352 9.11313C20.3805 8.93964 20.374 8.75667 20.3164 8.58685C20.2588 8.41703 20.1527 8.26782 20.0113 8.15766C19.8698 8.0475 19.6991 7.98123 19.5203 7.96704L14.2912 7.55061L12.0284 2.5416C11.9562 2.38031 11.8389 2.24334 11.6907 2.14724C11.5424 2.05114 11.3695 2 11.1928 2C11.0161 2 10.8432 2.05114 10.6949 2.14724C10.5466 2.24334 10.4293 2.38031 10.3572 2.5416L8.09436 7.55061L2.86521 7.96612C2.68952 7.98004 2.52156 8.04428 2.38142 8.15115C2.24128 8.25803 2.1349 8.40302 2.07501 8.56877C2.01511 8.73452 2.00424 8.91402 2.04369 9.08579C2.08314 9.25756 2.17123 9.41433 2.29745 9.53734L6.16267 13.3044ZM8.77954 9.33647C8.94326 9.32357 9.1005 9.26686 9.23476 9.1723C9.36903 9.07773 9.47539 8.94878 9.54268 8.79897L11.1928 5.14746L12.8429 8.79897C12.9102 8.94878 13.0165 9.07773 13.1508 9.1723C13.2851 9.26686 13.4423 9.32357 13.606 9.33647L17.2493 9.6254L14.249 12.3257C13.9885 12.5605 13.8849 12.9219 13.9803 13.2595L15.1295 17.2815L11.7028 14.9967C11.5524 14.8958 11.3753 14.8419 11.1942 14.8419C11.013 14.8419 10.836 14.8958 10.6856 14.9967L7.10467 17.3843L8.06776 13.2145C8.10308 13.0612 8.09834 12.9013 8.054 12.7503C8.00967 12.5993 7.92723 12.4623 7.81461 12.3523L5.02805 9.63549L8.77954 9.33647Z" fill="#F3CD03"/>
</svg>
